<mxfile host="65bd71144e">
    <diagram id="d7n4RqcQcft_sexDFx-5" name="Page-1">
        <mxGraphModel dx="700" dy="712" grid="1" gridSize="10" guides="1" tooltips="1" connect="1" arrows="1" fold="1" page="1" pageScale="1" pageWidth="1920" pageHeight="1200" math="0" shadow="0">
            <root>
                <mxCell id="0"/>
                <mxCell id="1" parent="0"/>
                <mxCell id="2" value="" style="edgeStyle=none;rounded=0;html=1;fontSize=13;labelBackgroundColor=none;" edge="1" parent="1" source="3" target="6">
                    <mxGeometry relative="1" as="geometry"/>
                </mxCell>
                <mxCell id="3" value="Admin login portal&lt;br&gt;" style="rounded=0;whiteSpace=wrap;html=1;fontSize=13;labelBackgroundColor=none;" vertex="1" parent="1">
                    <mxGeometry x="440" y="178" width="80" height="40" as="geometry"/>
                </mxCell>
                <mxCell id="4" style="edgeStyle=none;rounded=0;html=1;fontSize=13;labelBackgroundColor=none;" edge="1" parent="1" source="6">
                    <mxGeometry relative="1" as="geometry">
                        <mxPoint x="480" y="258" as="targetPoint"/>
                        <Array as="points">
                            <mxPoint x="560" y="338"/>
                            <mxPoint x="560" y="258"/>
                        </Array>
                    </mxGeometry>
                </mxCell>
                <mxCell id="5" style="edgeStyle=none;rounded=0;html=1;exitX=0.5;exitY=1;exitDx=0;exitDy=0;fontSize=13;labelBackgroundColor=none;" edge="1" parent="1" source="6" target="17">
                    <mxGeometry relative="1" as="geometry">
                        <mxPoint x="480" y="618" as="targetPoint"/>
                    </mxGeometry>
                </mxCell>
                <mxCell id="6" value="Login" style="rhombus;whiteSpace=wrap;html=1;rounded=0;fontSize=13;labelBackgroundColor=none;" vertex="1" parent="1">
                    <mxGeometry x="440" y="298" width="80" height="80" as="geometry"/>
                </mxCell>
                <mxCell id="7" value="NO" style="text;html=1;align=center;verticalAlign=middle;resizable=0;points=[];autosize=1;strokeColor=none;fillColor=none;fontSize=13;labelBackgroundColor=none;" vertex="1" parent="1">
                    <mxGeometry x="520" y="313" width="40" height="30" as="geometry"/>
                </mxCell>
                <mxCell id="8" value="Add Property" style="shape=parallelogram;perimeter=parallelogramPerimeter;whiteSpace=wrap;html=1;fixedSize=1;fontSize=13;labelBackgroundColor=none;" vertex="1" parent="1">
                    <mxGeometry x="530" y="398" width="190" height="40" as="geometry"/>
                </mxCell>
                <mxCell id="9" value="Delete , Update property&lt;span style=&quot;white-space: pre; font-size: 13px;&quot;&gt;&#9;&lt;/span&gt;" style="shape=parallelogram;perimeter=parallelogramPerimeter;whiteSpace=wrap;html=1;fixedSize=1;fontSize=13;labelBackgroundColor=none;" vertex="1" parent="1">
                    <mxGeometry x="530" y="448" width="190" height="40" as="geometry"/>
                </mxCell>
                <mxCell id="11" value="Validate Property , User" style="shape=parallelogram;perimeter=parallelogramPerimeter;whiteSpace=wrap;html=1;fixedSize=1;fontSize=13;labelBackgroundColor=none;" vertex="1" parent="1">
                    <mxGeometry x="530" y="510" width="190" height="40" as="geometry"/>
                </mxCell>
                <mxCell id="12" value="" style="endArrow=classic;html=1;fontSize=13;labelBackgroundColor=none;" edge="1" parent="1" target="8">
                    <mxGeometry width="50" height="50" relative="1" as="geometry">
                        <mxPoint x="480" y="418" as="sourcePoint"/>
                        <mxPoint x="540" y="428" as="targetPoint"/>
                    </mxGeometry>
                </mxCell>
                <mxCell id="13" value="" style="endArrow=classic;html=1;fontSize=13;labelBackgroundColor=none;" edge="1" parent="1" target="9">
                    <mxGeometry width="50" height="50" relative="1" as="geometry">
                        <mxPoint x="480" y="468" as="sourcePoint"/>
                        <mxPoint x="540" y="468" as="targetPoint"/>
                    </mxGeometry>
                </mxCell>
                <mxCell id="15" value="" style="endArrow=classic;html=1;fontSize=13;labelBackgroundColor=none;" edge="1" parent="1" target="11">
                    <mxGeometry width="50" height="50" relative="1" as="geometry">
                        <mxPoint x="480" y="530" as="sourcePoint"/>
                        <mxPoint x="540" y="577.62" as="targetPoint"/>
                    </mxGeometry>
                </mxCell>
                <mxCell id="16" value="Yes" style="text;html=1;align=center;verticalAlign=middle;resizable=0;points=[];autosize=1;strokeColor=none;fillColor=none;fontSize=13;labelBackgroundColor=none;" vertex="1" parent="1">
                    <mxGeometry x="480" y="379" width="40" height="30" as="geometry"/>
                </mxCell>
                <mxCell id="17" value="stop" style="ellipse;whiteSpace=wrap;html=1;fontSize=13;labelBackgroundColor=none;" vertex="1" parent="1">
                    <mxGeometry x="420" y="580" width="120" height="32" as="geometry"/>
                </mxCell>
                <mxCell id="18" style="edgeStyle=none;rounded=0;html=1;entryX=0.5;entryY=0;entryDx=0;entryDy=0;labelBackgroundColor=none;" edge="1" parent="1" source="19" target="3">
                    <mxGeometry relative="1" as="geometry"/>
                </mxCell>
                <mxCell id="19" value="start&lt;br&gt;" style="ellipse;whiteSpace=wrap;html=1;fontSize=13;labelBackgroundColor=none;" vertex="1" parent="1">
                    <mxGeometry x="420" y="110" width="120" height="32" as="geometry"/>
                </mxCell>
            </root>
        </mxGraphModel>
    </diagram>
</mxfile>